<svg width="37" height="45" viewBox="0 0 37 45" fill="none" xmlns="http://www.w3.org/2000/svg">
<path d="M4.11105 45C2.9805 45 2.01233 44.5991 1.20655 43.7973C0.400775 42.9955 -0.00142792 42.0327 -5.75452e-05 40.9091V4.09091C-5.75452e-05 2.96591 0.402831 2.0025 1.20861 1.20069C2.01439 0.398867 2.98187 -0.00136016 4.11105 3.47276e-06H24.6666C25.7972 3.47276e-06 26.7653 0.400913 27.5711 1.20273C28.3769 2.00455 28.7791 2.96728 28.7777 4.09091V12.2727H24.6666V10.2273H4.11105V34.7727H24.6666V32.7273H28.7777V40.9091C28.7777 42.0341 28.3748 42.9975 27.5691 43.7993C26.7633 44.6011 25.7958 45.0014 24.6666 45H4.11105ZM22.5083 30.6818L13.7722 21.9886L16.6499 19.125L22.5083 24.9545L34.1222 13.3977L36.9999 16.2614L22.5083 30.6818Z" fill="#D9D9D9"/>
</svg>
