<svg width="48" height="46" viewBox="0 0 48 46" fill="none" xmlns="http://www.w3.org/2000/svg">
<path d="M42.9474 5.11111H2.52632V0H42.9474V5.11111ZM28.5474 20.4444C26.5263 22.8978 25.2632 26.0156 25.2632 29.3889C25.2632 32.3022 26.3495 35.42 27.7895 38.3333V40.8889H2.52632V25.5556H0V20.4444L2.52632 7.66667H42.9474L44.7158 16.6111C43.0484 15.7933 41.2295 15.3333 39.3095 15.3333L38.8042 12.7778H6.66947L5.15368 20.4444H28.5474ZM22.7368 25.5556H7.57895V35.7778H22.7368V25.5556ZM48 29.3889C48 36.0333 39.1579 46 39.1579 46C39.1579 46 30.3158 36.0333 30.3158 29.3889C30.3158 24.5333 34.3579 20.4444 39.1579 20.4444C43.9579 20.4444 48 24.5333 48 29.3889ZM42.1895 29.6444C42.1895 28.1111 40.6737 26.5778 39.1579 26.5778C37.6421 26.5778 36.1263 27.8556 36.1263 29.6444C36.1263 31.1778 37.3895 32.7111 39.1579 32.7111C40.9263 32.7111 42.4421 31.1778 42.1895 29.6444Z" fill="#D9D9D9"/>
</svg>
