<svg width="43" height="43" viewBox="0 0 43 43" fill="none" xmlns="http://www.w3.org/2000/svg">
<path d="M4.03125 2.6875C3.67487 2.6875 3.33308 2.82907 3.08108 3.08108C2.82907 3.33308 2.6875 3.67487 2.6875 4.03125V12.0938C2.6875 12.4501 2.54593 12.7919 2.29392 13.0439C2.04192 13.2959 1.70013 13.4375 1.34375 13.4375C0.987365 13.4375 0.645577 13.2959 0.393575 13.0439C0.141573 12.7919 0 12.4501 0 12.0938V4.03125C0 2.9621 0.42472 1.93673 1.18073 1.18073C1.93673 0.42472 2.9621 0 4.03125 0L12.0938 0C12.4501 0 12.7919 0.141573 13.0439 0.393575C13.2959 0.645577 13.4375 0.987365 13.4375 1.34375C13.4375 1.70013 13.2959 2.04192 13.0439 2.29392C12.7919 2.54593 12.4501 2.6875 12.0938 2.6875H4.03125ZM29.5625 1.34375C29.5625 0.987365 29.7041 0.645577 29.9561 0.393575C30.2081 0.141573 30.5499 0 30.9062 0L38.9688 0C40.0379 0 41.0633 0.42472 41.8193 1.18073C42.5753 1.93673 43 2.9621 43 4.03125V12.0938C43 12.4501 42.8584 12.7919 42.6064 13.0439C42.3544 13.2959 42.0126 13.4375 41.6562 13.4375C41.2999 13.4375 40.9581 13.2959 40.7061 13.0439C40.4541 12.7919 40.3125 12.4501 40.3125 12.0938V4.03125C40.3125 3.67487 40.1709 3.33308 39.9189 3.08108C39.6669 2.82907 39.3251 2.6875 38.9688 2.6875H30.9062C30.5499 2.6875 30.2081 2.54593 29.9561 2.29392C29.7041 2.04192 29.5625 1.70013 29.5625 1.34375ZM1.34375 29.5625C1.70013 29.5625 2.04192 29.7041 2.29392 29.9561C2.54593 30.2081 2.6875 30.5499 2.6875 30.9062V38.9688C2.6875 39.3251 2.82907 39.6669 3.08108 39.9189C3.33308 40.1709 3.67487 40.3125 4.03125 40.3125H12.0938C12.4501 40.3125 12.7919 40.4541 13.0439 40.7061C13.2959 40.9581 13.4375 41.2999 13.4375 41.6562C13.4375 42.0126 13.2959 42.3544 13.0439 42.6064C12.7919 42.8584 12.4501 43 12.0938 43H4.03125C2.9621 43 1.93673 42.5753 1.18073 41.8193C0.42472 41.0633 0 40.0379 0 38.9688L0 30.9062C0 30.5499 0.141573 30.2081 0.393575 29.9561C0.645577 29.7041 0.987365 29.5625 1.34375 29.5625ZM41.6562 29.5625C42.0126 29.5625 42.3544 29.7041 42.6064 29.9561C42.8584 30.2081 43 30.5499 43 30.9062V38.9688C43 40.0379 42.5753 41.0633 41.8193 41.8193C41.0633 42.5753 40.0379 43 38.9688 43H30.9062C30.5499 43 30.2081 42.8584 29.9561 42.6064C29.7041 42.3544 29.5625 42.0126 29.5625 41.6562C29.5625 41.2999 29.7041 40.9581 29.9561 40.7061C30.2081 40.4541 30.5499 40.3125 30.9062 40.3125H38.9688C39.3251 40.3125 39.6669 40.1709 39.9189 39.9189C40.1709 39.6669 40.3125 39.3251 40.3125 38.9688V30.9062C40.3125 30.5499 40.4541 30.2081 40.7061 29.9561C40.9581 29.7041 41.2999 29.5625 41.6562 29.5625ZM8.0625 12.0938C8.0625 11.7374 8.20407 11.3956 8.45608 11.1436C8.70808 10.8916 9.04987 10.75 9.40625 10.75C9.76263 10.75 10.1044 10.8916 10.3564 11.1436C10.6084 11.3956 10.75 11.7374 10.75 12.0938V30.9062C10.75 31.2626 10.6084 31.6044 10.3564 31.8564C10.1044 32.1084 9.76263 32.25 9.40625 32.25C9.04987 32.25 8.70808 32.1084 8.45608 31.8564C8.20407 31.6044 8.0625 31.2626 8.0625 30.9062V12.0938ZM13.4375 12.0938C13.4375 11.7374 13.5791 11.3956 13.8311 11.1436C14.0831 10.8916 14.4249 10.75 14.7812 10.75C15.1376 10.75 15.4794 10.8916 15.7314 11.1436C15.9834 11.3956 16.125 11.7374 16.125 12.0938V30.9062C16.125 31.2626 15.9834 31.6044 15.7314 31.8564C15.4794 32.1084 15.1376 32.25 14.7812 32.25C14.4249 32.25 14.0831 32.1084 13.8311 31.8564C13.5791 31.6044 13.4375 31.2626 13.4375 30.9062V12.0938ZM18.8125 12.0938C18.8125 11.7374 18.9541 11.3956 19.2061 11.1436C19.4581 10.8916 19.7999 10.75 20.1562 10.75C20.5126 10.75 20.8544 10.8916 21.1064 11.1436C21.3584 11.3956 21.5 11.7374 21.5 12.0938V30.9062C21.5 31.2626 21.3584 31.6044 21.1064 31.8564C20.8544 32.1084 20.5126 32.25 20.1562 32.25C19.7999 32.25 19.4581 32.1084 19.2061 31.8564C18.9541 31.6044 18.8125 31.2626 18.8125 30.9062V12.0938ZM24.1875 12.0938C24.1875 11.7374 24.3291 11.3956 24.5811 11.1436C24.8331 10.8916 25.1749 10.75 25.5312 10.75H28.2188C28.5751 10.75 28.9169 10.8916 29.1689 11.1436C29.4209 11.3956 29.5625 11.7374 29.5625 12.0938V30.9062C29.5625 31.2626 29.4209 31.6044 29.1689 31.8564C28.9169 32.1084 28.5751 32.25 28.2188 32.25H25.5312C25.1749 32.25 24.8331 32.1084 24.5811 31.8564C24.3291 31.6044 24.1875 31.2626 24.1875 30.9062V12.0938ZM32.25 12.0938C32.25 11.7374 32.3916 11.3956 32.6436 11.1436C32.8956 10.8916 33.2374 10.75 33.5938 10.75C33.9501 10.75 34.2919 10.8916 34.5439 11.1436C34.7959 11.3956 34.9375 11.7374 34.9375 12.0938V30.9062C34.9375 31.2626 34.7959 31.6044 34.5439 31.8564C34.2919 32.1084 33.9501 32.25 33.5938 32.25C33.2374 32.25 32.8956 32.1084 32.6436 31.8564C32.3916 31.6044 32.25 31.2626 32.25 30.9062V12.0938Z" fill="#D9D9D9"/>
</svg>
